<svg xmlns="http://www.w3.org/2000/svg" width="1240" height="420" viewBox="0 0 1240 420" fill="none">
  <title>Lineskeats Horizontal Logo</title>
  <rect width="1240" height="420" rx="44" fill="#FFF7EF"/>
  <g transform="translate(86 60)">
    <path d="M128 24C86.026 24 52 58.026 52 100C52 155.064 128 232 128 232C128 232 204 155.064 204 100C204 58.026 169.974 24 128 24Z" fill="#6E1932"/>
    <path d="M128 42C95.967 42 70 67.967 70 100C70 140.567 128 199.16 128 199.16C128 199.16 186 140.567 186 100C186 67.967 160.033 42 128 42Z" fill="#FFF7EF"/>
    <path d="M116 62V138H154" stroke="#6E1932" stroke-width="16" stroke-linecap="round" stroke-linejoin="round"/>
    <path d="M116 102H194" stroke="#6E1932" stroke-width="12" stroke-linecap="round"/>
    <path d="M54 102H116" stroke="#6E1932" stroke-width="8" stroke-linecap="round"/>
    <path d="M186 94L202 102L186 110" stroke="#6E1932" stroke-width="8" stroke-linecap="round" stroke-linejoin="round"/>
    <circle cx="214" cy="102" r="8" fill="#6E1932"/>
  </g>
  <g transform="translate(372 102)">
    <text x="0" y="126" fill="#6E1932" font-size="124" font-weight="700" font-family="Georgia, 'Times New Roman', serif">Lineskeats</text>
    <text x="2" y="192" fill="#6E1932" font-size="36" font-weight="700" font-family="Arial, sans-serif">Le bon endroit, au bon moment.</text>
    <text x="2" y="238" fill="#7E4A58" font-size="28" font-weight="500" font-family="Arial, sans-serif">Cuisine et retrait synchronises.</text>
  </g>
</svg>
